<?xml version="1.0" standalone="no"?>
<!DOCTYPE svg PUBLIC "-//W3C//DTD SVG 20010904//EN"
 "http://www.w3.org/TR/2001/REC-SVG-20010904/DTD/svg10.dtd">
<svg version="1.0" xmlns="http://www.w3.org/2000/svg"
 width="900.000000pt" height="900.000000pt" viewBox="0 0 900.000000 900.000000"
 preserveAspectRatio="xMidYMid meet">
<metadata>
Created by potrace 1.14, written by Peter Selinger 2001-2017
</metadata>
<g transform="translate(0.000000,900.000000) scale(0.100000,-0.100000)"
fill="#000000" stroke="none">
<path d="M24 8584 c3 -8 55 -99 114 -202 60 -103 196 -338 302 -522 655 -1135
698 -1210 763 -1320 27 -47 61 -105 75 -130 14 -25 63 -110 109 -189 45 -79
83 -145 83 -147 0 -1 25 -43 55 -93 30 -50 55 -93 55 -96 0 -3 11 -22 24 -43
18 -29 191 -326 306 -527 55 -96 652 -1130 1044 -1807 72 -125 136 -236 141
-245 6 -10 31 -54 56 -98 26 -44 57 -98 69 -120 12 -22 86 -150 164 -285 79
-135 178 -307 222 -382 43 -76 81 -138 85 -138 6 0 72 109 122 200 11 19 69
120 129 224 l110 189 -23 41 c-12 22 -121 212 -242 421 -121 209 -231 400
-245 425 -14 25 -80 140 -147 255 -67 116 -208 359 -312 540 -244 423 -943
1634 -1083 1875 -58 102 -192 334 -297 515 -105 182 -273 472 -373 645 -100
173 -193 334 -207 358 l-24 42 3468 0 3468 1 -31 27 c-16 15 -142 124 -280
242 -137 118 -251 217 -254 220 -3 3 -34 30 -70 60 -36 30 -71 60 -78 67 -11
10 -734 13 -3659 13 -3294 0 -3645 -1 -3639 -16z"/>
<path d="M1610 7666 c0 -4 43 -83 96 -175 53 -91 110 -191 127 -221 16 -30 33
-59 37 -65 5 -5 23 -37 40 -70 18 -33 40 -67 49 -75 15 -13 359 -15 2979 -15
1629 0 2962 -2 2962 -5 0 -3 -46 -84 -101 -180 -56 -96 -177 -305 -269 -465
-92 -159 -193 -335 -225 -390 -32 -55 -71 -125 -88 -155 -16 -30 -36 -62 -43
-71 -8 -8 -14 -18 -14 -21 0 -3 -30 -57 -66 -119 -118 -203 -296 -513 -322
-559 -14 -25 -28 -49 -32 -55 -4 -5 -18 -28 -30 -50 -12 -22 -65 -114 -118
-205 -217 -377 -733 -1270 -852 -1475 -70 -121 -139 -240 -153 -265 -14 -25
-48 -85 -77 -135 -29 -49 -61 -106 -72 -125 -11 -19 -62 -107 -113 -195 -51
-88 -149 -257 -217 -375 -68 -118 -176 -305 -240 -415 -64 -110 -124 -216
-135 -235 -35 -62 -215 -373 -264 -455 -26 -44 -44 -81 -40 -83 4 -1 99 30
211 69 113 38 270 93 350 121 80 27 179 61 220 75 41 14 87 31 101 39 24 12
57 66 414 686 6 9 39 68 75 130 36 62 77 133 91 158 14 25 39 68 54 95 15 28
31 55 35 60 4 6 19 30 33 55 19 34 406 704 628 1088 11 17 29 49 40 70 41 73
341 592 452 782 50 86 335 581 377 654 9 17 58 101 107 186 50 85 191 331 315
545 124 215 235 406 247 425 11 19 24 42 28 50 8 19 98 173 129 222 13 21 24
40 24 42 0 3 22 43 49 88 27 46 58 99 68 118 11 19 43 74 72 122 28 48 51 91
51 97 0 6 5 11 10 11 6 0 10 5 10 10 0 6 19 43 43 83 102 170 327 565 327 573
0 5 -1474 9 -3690 9 -2060 0 -3690 -4 -3690 -9z"/>
<path d="M176 7623 c-3 -10 -10 -45 -16 -78 -6 -33 -17 -94 -25 -135 -8 -41
-17 -88 -20 -105 -3 -16 -12 -64 -20 -105 -8 -41 -17 -93 -21 -115 -3 -22 -7
-42 -9 -45 -2 -3 -6 -25 -10 -50 -4 -25 -8 -47 -10 -50 -2 -3 -6 -26 -10 -50
-4 -25 -13 -75 -21 -112 -7 -37 -11 -75 -7 -85 4 -10 62 -112 129 -228 102
-178 210 -365 392 -680 48 -83 43 -75 294 -510 124 -214 235 -406 245 -425 39
-68 153 -265 162 -280 8 -13 114 -196 147 -255 14 -25 252 -436 304 -525 88
-151 137 -236 143 -250 4 -8 15 -28 25 -45 23 -37 157 -266 187 -320 38 -66
152 -265 311 -540 83 -143 162 -280 176 -305 14 -25 83 -144 153 -265 70 -121
135 -233 145 -250 142 -247 479 -829 496 -857 13 -21 24 -40 24 -42 0 -2 48
-87 107 -188 58 -101 132 -227 163 -281 43 -73 60 -94 67 -85 6 7 46 76 90
153 45 77 90 156 101 175 11 19 109 190 219 380 255 441 513 888 638 1105 154
267 304 526 402 695 49 85 161 279 248 430 87 151 169 292 182 312 12 21 23
40 23 43 0 3 11 22 24 43 19 30 156 266 239 412 10 19 40 71 66 115 25 44 51
88 56 97 6 10 57 99 115 199 58 100 116 200 129 223 140 244 523 907 557 964
24 40 44 74 44 77 0 3 101 179 129 225 12 19 360 622 382 660 8 16 23 40 32
54 17 26 17 26 -10 27 -16 0 -178 2 -361 2 -285 2 -335 0 -346 -13 -11 -13
-33 -50 -123 -207 -38 -67 -189 -328 -215 -372 -15 -25 -33 -57 -41 -71 -13
-25 -103 -181 -317 -550 -59 -102 -119 -205 -132 -230 -14 -25 -90 -155 -168
-290 -78 -135 -154 -265 -168 -290 -33 -58 -176 -307 -725 -1257 -163 -282
-307 -532 -320 -555 -49 -86 -157 -273 -167 -288 -6 -8 -13 -22 -17 -30 -4 -8
-17 -32 -31 -53 -13 -22 -34 -59 -48 -83 -13 -23 -80 -139 -147 -256 -68 -117
-141 -244 -163 -281 -118 -207 -160 -279 -176 -300 -12 -15 -16 -12 -44 40
-17 32 -131 231 -254 443 -122 212 -283 491 -358 620 -74 129 -152 264 -174
299 -21 34 -38 65 -38 67 0 2 -27 49 -60 105 -33 55 -60 102 -60 104 0 2 -44
79 -98 171 -55 93 -160 275 -234 404 -75 129 -219 380 -322 557 -102 177 -194
337 -204 355 -21 36 -244 423 -560 968 -113 195 -215 373 -228 395 -12 22 -59
102 -103 179 -45 76 -81 140 -81 141 0 2 -21 39 -46 82 -61 102 -260 445 -292
503 -14 25 -71 124 -127 220 -56 96 -113 195 -127 220 -67 118 -80 140 -83
140 -2 0 -6 -8 -9 -17z"/>
</g>
</svg>
