<?xml version="1.0" standalone="no"?>
<!DOCTYPE svg PUBLIC "-//W3C//DTD SVG 20010904//EN"
 "http://www.w3.org/TR/2001/REC-SVG-20010904/DTD/svg10.dtd">
<svg version="1.0" xmlns="http://www.w3.org/2000/svg"
 width="900.000000pt" height="900.000000pt" viewBox="0 0 900.000000 900.000000"
 preserveAspectRatio="xMidYMid meet">
<metadata>
Created by potrace 1.14, written by Peter Selinger 2001-2017
</metadata>
<g transform="translate(0.000000,900.000000) scale(0.100000,-0.100000)"
fill="#000000" stroke="none">
<path d="M355 8986 c-86 -22 -148 -58 -216 -125 -67 -67 -101 -127 -125 -216
-21 -77 -19 -8216 1 -8292 47 -174 192 -310 364 -343 75 -14 8167 -14 8242 0
128 24 259 118 317 228 67 126 62 -245 62 4262 0 2651 -4 4101 -10 4130 -39
177 -174 315 -350 357 -79 18 -8209 18 -8285 -1z"/>
</g>
</svg>
