<?xml version="1.0" encoding="UTF-8" standalone="no" ?>
<!DOCTYPE svg PUBLIC "-//W3C//DTD SVG 1.1//EN" "http://www.w3.org/Graphics/SVG/1.1/DTD/svg11.dtd">
<svg xmlns="http://www.w3.org/2000/svg" xmlns:xlink="http://www.w3.org/1999/xlink" version="1.1" width="32" height="32" viewBox="0 0 32 32" xml:space="preserve">
<desc>Created with Fabric.js 5.3.0</desc>
<defs>
</defs>
<g transform="matrix(-2.0866758812 0 0 -2.086675481 15.9999999232 16)" id="cit1jNHpNK5HwH5XmE4qh"  >
<path style="stroke: rgb(0,0,0); stroke-width: 0; stroke-dasharray: none; stroke-linecap: butt; stroke-dashoffset: 0; stroke-linejoin: miter; stroke-miterlimit: 4; fill: rgb(250,250,250); fill-rule: nonzero; opacity: 1;" vector-effect="non-scaling-stroke"  transform=" translate(0, 0)" d="M -7.1768 4.32526 C -7.4911200000000004 4.01094 -7.6677 3.58463 -7.6677 3.14012 C -7.6677 2.69561 -7.49112 2.2693 -7.1768 1.95498 L -0.6279200000000005 -4.5939 L -0.6279200000000005 -4.5939 C -0.27388000000000046 -4.94794 0.30012999999999956 -4.94794 0.6541699999999995 -4.5939 L 7.1758299999999995 1.9277600000000001 L 7.1758299999999995 1.9277600000000001 C 7.4907699999999995 2.2427 7.667699999999999 2.6698500000000003 7.667699999999999 3.11524 C 7.667699999999999 3.56063 7.4907699999999995 3.98778 7.1758299999999995 4.30272 L 7.1758299999999995 4.30272 L 7.1758299999999995 4.30272 C 6.45116 5.02739 5.27623 5.02739 4.551559999999999 4.30272 L -0.011750000000001037 -0.26059000000000054 L -4.597610000000001 4.32527 L -4.597610000000001 4.32527 C -5.309830000000002 5.03749 -6.464570000000001 5.03749 -7.176790000000001 4.32527 z" stroke-linecap="round" />
</g>
</svg>